<svg width="1920" height="1080" viewBox="0 0 1920 1080" fill="none" xmlns="http://www.w3.org/2000/svg">
<g clip-path="url(#clip0)">
<rect width="1920" height="1080" fill="white"></rect>
<path opacity="0.1" d="M233.5 -168L328.133 92.8461H634.37L386.619 254.058L481.251 514.904L233.5 353.692L-14.2515 514.904L80.3812 254.058L-167.37 92.8461H138.867L233.5 -168Z" fill="#3080EB"></path>
<path opacity="0.1" d="M270.5 -84L365.133 176.846H671.37L423.619 338.058L518.251 598.904L270.5 437.692L22.7485 598.904L117.381 338.058L-130.37 176.846H175.867L270.5 -84Z" fill="#3080EB"></path>
<path d="M716.5 226L749.616 317.555H856.781L770.083 374.14L803.198 465.695L716.5 409.111L629.802 465.695L662.917 374.14L576.219 317.555H683.384L716.5 226Z" fill="#E94A47" fill-opacity="0.1"></path>
<path d="M463.5 578L487.186 645.025H563.836L501.825 686.449L525.511 753.475L463.5 712.051L401.489 753.475L425.175 686.449L363.164 645.025H439.814L463.5 578Z" fill="#3080E8" fill-opacity="0.1"></path>
<path d="M726 603L741.94 647.568H793.525L751.792 675.113L767.733 719.682L726 692.137L684.267 719.682L700.208 675.113L658.475 647.568H710.06L726 603Z" fill="#151A4F" fill-opacity="0.1"></path>
<path d="M1062.5 425L1115.15 566.306H1285.52L1147.69 653.638L1200.34 794.944L1062.5 707.612L924.664 794.944L977.313 653.638L839.477 566.306H1009.85L1062.5 425Z" fill="#FAA933" fill-opacity="0.1"></path>
<path d="M281.128 396.456V430.872C281.128 436.2 279.616 440.304 276.592 443.184C273.616 446.064 269.584 447.504 264.496 447.504C259.168 447.504 254.896 445.992 251.68 442.968C248.464 439.944 246.856 435.648 246.856 430.08H259.096C259.096 432.192 259.528 433.8 260.392 434.904C261.256 435.96 262.504 436.488 264.136 436.488C265.624 436.488 266.776 436.008 267.592 435.048C268.408 434.088 268.816 432.696 268.816 430.872V396.456H281.128ZM309.361 447.576C305.425 447.576 301.873 446.736 298.705 445.056C295.585 443.376 293.113 440.976 291.289 437.856C289.513 434.736 288.625 431.088 288.625 426.912C288.625 422.784 289.537 419.16 291.361 416.04C293.185 412.872 295.681 410.448 298.849 408.768C302.017 407.088 305.569 406.248 309.505 406.248C313.441 406.248 316.993 407.088 320.161 408.768C323.329 410.448 325.825 412.872 327.649 416.04C329.473 419.16 330.385 422.784 330.385 426.912C330.385 431.04 329.449 434.688 327.577 437.856C325.753 440.976 323.233 443.376 320.017 445.056C316.849 446.736 313.297 447.576 309.361 447.576ZM309.361 436.92C311.713 436.92 313.705 436.056 315.337 434.328C317.017 432.6 317.857 430.128 317.857 426.912C317.857 423.696 317.041 421.224 315.409 419.496C313.825 417.768 311.857 416.904 309.505 416.904C307.105 416.904 305.113 417.768 303.529 419.496C301.945 421.176 301.153 423.648 301.153 426.912C301.153 430.128 301.921 432.6 303.457 434.328C305.041 436.056 307.009 436.92 309.361 436.92ZM343.109 402.648C340.949 402.648 339.173 402.024 337.781 400.776C336.437 399.48 335.765 397.896 335.765 396.024C335.765 394.104 336.437 392.52 337.781 391.272C339.173 389.976 340.949 389.328 343.109 389.328C345.221 389.328 346.949 389.976 348.293 391.272C349.685 392.52 350.381 394.104 350.381 396.024C350.381 397.896 349.685 399.48 348.293 400.776C346.949 402.024 345.221 402.648 343.109 402.648ZM349.229 406.824V447H336.917V406.824H349.229ZM382.632 406.392C387.336 406.392 391.08 407.928 393.864 411C396.696 414.024 398.112 418.2 398.112 423.528V447H385.872V425.184C385.872 422.496 385.176 420.408 383.784 418.92C382.392 417.432 380.52 416.688 378.168 416.688C375.816 416.688 373.944 417.432 372.552 418.92C371.16 420.408 370.464 422.496 370.464 425.184V447H358.152V406.824H370.464V412.152C371.712 410.376 373.392 408.984 375.504 407.976C377.616 406.92 379.992 406.392 382.632 406.392ZM530.969 526.84C530.969 522.712 531.737 519.088 533.273 515.968C534.857 512.848 536.993 510.448 539.681 508.768C542.369 507.088 545.369 506.248 548.681 506.248C551.513 506.248 553.985 506.824 556.097 507.976C558.257 509.128 559.913 510.64 561.065 512.512V506.824H573.377V547H561.065V541.312C559.865 543.184 558.185 544.696 556.025 545.848C553.913 547 551.441 547.576 548.609 547.576C545.345 547.576 542.369 546.736 539.681 545.056C536.993 543.328 534.857 540.904 533.273 537.784C531.737 534.616 530.969 530.968 530.969 526.84ZM561.065 526.912C561.065 523.84 560.201 521.416 558.473 519.64C556.793 517.864 554.729 516.976 552.281 516.976C549.833 516.976 547.745 517.864 546.017 519.64C544.337 521.368 543.497 523.768 543.497 526.84C543.497 529.912 544.337 532.36 546.017 534.184C547.745 535.96 549.833 536.848 552.281 536.848C554.729 536.848 556.793 535.96 558.473 534.184C560.201 532.408 561.065 529.984 561.065 526.912ZM606.764 506.392C611.468 506.392 615.212 507.928 617.996 511C620.828 514.024 622.244 518.2 622.244 523.528V547H610.004V525.184C610.004 522.496 609.308 520.408 607.916 518.92C606.524 517.432 604.652 516.688 602.3 516.688C599.948 516.688 598.076 517.432 596.684 518.92C595.292 520.408 594.596 522.496 594.596 525.184V547H582.284V506.824H594.596V512.152C595.844 510.376 597.524 508.984 599.636 507.976C601.748 506.92 604.124 506.392 606.764 506.392ZM628.352 526.84C628.352 522.712 629.12 519.088 630.656 515.968C632.24 512.848 634.376 510.448 637.064 508.768C639.752 507.088 642.752 506.248 646.064 506.248C648.704 506.248 651.104 506.8 653.264 507.904C655.472 509.008 657.2 510.496 658.448 512.368V493.72H670.76V547H658.448V541.24C657.296 543.16 655.64 544.696 653.48 545.848C651.368 547 648.896 547.576 646.064 547.576C642.752 547.576 639.752 546.736 637.064 545.056C634.376 543.328 632.24 540.904 630.656 537.784C629.12 534.616 628.352 530.968 628.352 526.84ZM658.448 526.912C658.448 523.84 657.584 521.416 655.856 519.64C654.176 517.864 652.112 516.976 649.664 516.976C647.216 516.976 645.128 517.864 643.4 519.64C641.72 521.368 640.88 523.768 640.88 526.84C640.88 529.912 641.72 532.36 643.4 534.184C645.128 535.96 647.216 536.848 649.664 536.848C652.112 536.848 654.176 535.96 655.856 534.184C657.584 532.408 658.448 529.984 658.448 526.912ZM207.631 612.512C208.783 610.64 210.439 609.128 212.599 607.976C214.759 606.824 217.231 606.248 220.015 606.248C223.327 606.248 226.327 607.088 229.015 608.768C231.703 610.448 233.815 612.848 235.351 615.968C236.935 619.088 237.727 622.712 237.727 626.84C237.727 630.968 236.935 634.616 235.351 637.784C233.815 640.904 231.703 643.328 229.015 645.056C226.327 646.736 223.327 647.576 220.015 647.576C217.183 647.576 214.711 647.024 212.599 645.92C210.487 644.768 208.831 643.256 207.631 641.384V647H195.319V593.72H207.631V612.512ZM225.199 626.84C225.199 623.768 224.335 621.368 222.607 619.64C220.927 617.864 218.839 616.976 216.343 616.976C213.895 616.976 211.807 617.864 210.079 619.64C208.399 621.416 207.559 623.84 207.559 626.912C207.559 629.984 208.399 632.408 210.079 634.184C211.807 635.96 213.895 636.848 216.343 636.848C218.791 636.848 220.879 635.96 222.607 634.184C224.335 632.36 225.199 629.912 225.199 626.84ZM282.059 626.264C282.059 627.416 281.987 628.616 281.843 629.864H253.979C254.171 632.36 254.963 634.28 256.355 635.624C257.795 636.92 259.547 637.568 261.611 637.568C264.683 637.568 266.819 636.272 268.019 633.68H281.123C280.451 636.32 279.227 638.696 277.451 640.808C275.723 642.92 273.539 644.576 270.899 645.776C268.259 646.976 265.307 647.576 262.043 647.576C258.107 647.576 254.603 646.736 251.531 645.056C248.459 643.376 246.059 640.976 244.331 637.856C242.603 634.736 241.739 631.088 241.739 626.912C241.739 622.736 242.579 619.088 244.259 615.968C245.987 612.848 248.387 610.448 251.459 608.768C254.531 607.088 258.059 606.248 262.043 606.248C265.931 606.248 269.387 607.064 272.411 608.696C275.435 610.328 277.787 612.656 279.467 615.68C281.195 618.704 282.059 622.232 282.059 626.264ZM269.459 623.024C269.459 620.912 268.739 619.232 267.299 617.984C265.859 616.736 264.059 616.112 261.899 616.112C259.835 616.112 258.083 616.712 256.643 617.912C255.251 619.112 254.387 620.816 254.051 623.024H269.459ZM286.106 626.912C286.106 622.736 286.946 619.088 288.626 615.968C290.354 612.848 292.73 610.448 295.754 608.768C298.826 607.088 302.33 606.248 306.266 606.248C311.306 606.248 315.506 607.568 318.866 610.208C322.274 612.848 324.506 616.568 325.562 621.368H312.458C311.354 618.296 309.218 616.76 306.05 616.76C303.794 616.76 301.994 617.648 300.65 619.424C299.306 621.152 298.634 623.648 298.634 626.912C298.634 630.176 299.306 632.696 300.65 634.472C301.994 636.2 303.794 637.064 306.05 637.064C309.218 637.064 311.354 635.528 312.458 632.456H325.562C324.506 637.16 322.274 640.856 318.866 643.544C315.458 646.232 311.258 647.576 306.266 647.576C302.33 647.576 298.826 646.736 295.754 645.056C292.73 643.376 290.354 640.976 288.626 637.856C286.946 634.736 286.106 631.088 286.106 626.912ZM350.436 647.576C346.5 647.576 342.948 646.736 339.78 645.056C336.66 643.376 334.188 640.976 332.364 637.856C330.588 634.736 329.7 631.088 329.7 626.912C329.7 622.784 330.612 619.16 332.436 616.04C334.26 612.872 336.756 610.448 339.924 608.768C343.092 607.088 346.644 606.248 350.58 606.248C354.516 606.248 358.068 607.088 361.236 608.768C364.404 610.448 366.9 612.872 368.724 616.04C370.548 619.16 371.46 622.784 371.46 626.912C371.46 631.04 370.524 634.688 368.652 637.856C366.828 640.976 364.308 643.376 361.092 645.056C357.924 646.736 354.372 647.576 350.436 647.576ZM350.436 636.92C352.788 636.92 354.78 636.056 356.412 634.328C358.092 632.6 358.932 630.128 358.932 626.912C358.932 623.696 358.116 621.224 356.484 619.496C354.9 617.768 352.932 616.904 350.58 616.904C348.18 616.904 346.188 617.768 344.604 619.496C343.02 621.176 342.228 623.648 342.228 626.912C342.228 630.128 342.996 632.6 344.532 634.328C346.116 636.056 348.084 636.92 350.436 636.92ZM429.255 606.392C434.247 606.392 438.207 607.904 441.135 610.928C444.111 613.952 445.599 618.152 445.599 623.528V647H433.359V625.184C433.359 622.592 432.663 620.6 431.271 619.208C429.927 617.768 428.055 617.048 425.655 617.048C423.255 617.048 421.359 617.768 419.967 619.208C418.623 620.6 417.951 622.592 417.951 625.184V647H405.711V625.184C405.711 622.592 405.015 620.6 403.623 619.208C402.279 617.768 400.407 617.048 398.007 617.048C395.607 617.048 393.711 617.768 392.319 619.208C390.975 620.6 390.303 622.592 390.303 625.184V647H377.991V606.824H390.303V611.864C391.551 610.184 393.183 608.864 395.199 607.904C397.215 606.896 399.495 606.392 402.039 606.392C405.063 606.392 407.751 607.04 410.103 608.336C412.503 609.632 414.375 611.48 415.719 613.88C417.111 611.672 419.007 609.872 421.407 608.48C423.807 607.088 426.423 606.392 429.255 606.392ZM492.082 626.264C492.082 627.416 492.01 628.616 491.866 629.864H464.002C464.194 632.36 464.986 634.28 466.378 635.624C467.818 636.92 469.57 637.568 471.634 637.568C474.706 637.568 476.842 636.272 478.042 633.68H491.146C490.474 636.32 489.25 638.696 487.474 640.808C485.746 642.92 483.562 644.576 480.922 645.776C478.282 646.976 475.33 647.576 472.066 647.576C468.13 647.576 464.626 646.736 461.554 645.056C458.482 643.376 456.082 640.976 454.354 637.856C452.626 634.736 451.762 631.088 451.762 626.912C451.762 622.736 452.602 619.088 454.282 615.968C456.01 612.848 458.41 610.448 461.482 608.768C464.554 607.088 468.082 606.248 472.066 606.248C475.954 606.248 479.41 607.064 482.434 608.696C485.458 610.328 487.81 612.656 489.49 615.68C491.218 618.704 492.082 622.232 492.082 626.264ZM479.482 623.024C479.482 620.912 478.762 619.232 477.322 617.984C475.882 616.736 474.082 616.112 471.922 616.112C469.858 616.112 468.106 616.712 466.666 617.912C465.274 619.112 464.41 620.816 464.074 623.024H479.482ZM532.123 647.576C528.187 647.576 524.635 646.736 521.467 645.056C518.347 643.376 515.875 640.976 514.051 637.856C512.275 634.736 511.387 631.088 511.387 626.912C511.387 622.784 512.299 619.16 514.123 616.04C515.947 612.872 518.443 610.448 521.611 608.768C524.779 607.088 528.331 606.248 532.267 606.248C536.203 606.248 539.755 607.088 542.923 608.768C546.091 610.448 548.587 612.872 550.411 616.04C552.235 619.16 553.147 622.784 553.147 626.912C553.147 631.04 552.211 634.688 550.339 637.856C548.515 640.976 545.995 643.376 542.779 645.056C539.611 646.736 536.059 647.576 532.123 647.576ZM532.123 636.92C534.475 636.92 536.467 636.056 538.099 634.328C539.779 632.6 540.619 630.128 540.619 626.912C540.619 623.696 539.803 621.224 538.171 619.496C536.587 617.768 534.619 616.904 532.267 616.904C529.867 616.904 527.875 617.768 526.291 619.496C524.707 621.176 523.915 623.648 523.915 626.912C523.915 630.128 524.683 632.6 526.219 634.328C527.803 636.056 529.771 636.92 532.123 636.92ZM584.159 606.392C588.863 606.392 592.607 607.928 595.391 611C598.223 614.024 599.639 618.2 599.639 623.528V647H587.399V625.184C587.399 622.496 586.703 620.408 585.311 618.92C583.919 617.432 582.047 616.688 579.695 616.688C577.343 616.688 575.471 617.432 574.079 618.92C572.687 620.408 571.991 622.496 571.991 625.184V647H559.679V606.824H571.991V612.152C573.239 610.376 574.919 608.984 577.031 607.976C579.143 606.92 581.519 606.392 584.159 606.392ZM646.066 626.264C646.066 627.416 645.994 628.616 645.85 629.864H617.986C618.178 632.36 618.97 634.28 620.362 635.624C621.802 636.92 623.554 637.568 625.618 637.568C628.69 637.568 630.826 636.272 632.026 633.68H645.13C644.458 636.32 643.234 638.696 641.458 640.808C639.73 642.92 637.546 644.576 634.906 645.776C632.266 646.976 629.314 647.576 626.05 647.576C622.114 647.576 618.61 646.736 615.538 645.056C612.466 643.376 610.066 640.976 608.338 637.856C606.61 634.736 605.746 631.088 605.746 626.912C605.746 622.736 606.586 619.088 608.266 615.968C609.994 612.848 612.394 610.448 615.466 608.768C618.538 607.088 622.066 606.248 626.05 606.248C629.938 606.248 633.394 607.064 636.418 608.696C639.442 610.328 641.794 612.656 643.474 615.68C645.202 618.704 646.066 622.232 646.066 626.264ZM633.466 623.024C633.466 620.912 632.746 619.232 631.306 617.984C629.866 616.736 628.066 616.112 625.906 616.112C623.842 616.112 622.09 616.712 620.65 617.912C619.258 619.112 618.394 620.816 618.058 623.024H633.466ZM686.107 647.576C682.171 647.576 678.619 646.736 675.451 645.056C672.331 643.376 669.859 640.976 668.035 637.856C666.259 634.736 665.371 631.088 665.371 626.912C665.371 622.784 666.283 619.16 668.107 616.04C669.931 612.872 672.427 610.448 675.595 608.768C678.763 607.088 682.315 606.248 686.251 606.248C690.187 606.248 693.739 607.088 696.907 608.768C700.075 610.448 702.571 612.872 704.395 616.04C706.219 619.16 707.131 622.784 707.131 626.912C707.131 631.04 706.195 634.688 704.323 637.856C702.499 640.976 699.979 643.376 696.763 645.056C693.595 646.736 690.043 647.576 686.107 647.576ZM686.107 636.92C688.459 636.92 690.451 636.056 692.083 634.328C693.763 632.6 694.603 630.128 694.603 626.912C694.603 623.696 693.787 621.224 692.155 619.496C690.571 617.768 688.603 616.904 686.251 616.904C683.851 616.904 681.859 617.768 680.275 619.496C678.691 621.176 677.899 623.648 677.899 626.912C677.899 630.128 678.667 632.6 680.203 634.328C681.787 636.056 683.755 636.92 686.107 636.92ZM733.823 617.048H727.199V647H714.887V617.048H710.423V606.824H714.887V605.672C714.887 600.728 716.303 596.984 719.135 594.44C721.967 591.848 726.119 590.552 731.591 590.552C732.503 590.552 733.175 590.576 733.607 590.624V601.064C731.255 600.92 729.599 601.256 728.639 602.072C727.679 602.888 727.199 604.352 727.199 606.464V606.824H733.823V617.048ZM390.68 736.56V747H384.416C379.952 747 376.472 745.92 373.976 743.76C371.48 741.552 370.232 737.976 370.232 733.032V717.048H365.336V706.824H370.232V697.032H382.544V706.824H390.608V717.048H382.544V733.176C382.544 734.376 382.832 735.24 383.408 735.768C383.984 736.296 384.944 736.56 386.288 736.56H390.68ZM422.234 706.392C426.842 706.392 430.538 707.928 433.322 711C436.106 714.024 437.498 718.2 437.498 723.528V747H425.258V725.184C425.258 722.496 424.562 720.408 423.17 718.92C421.778 717.432 419.906 716.688 417.554 716.688C415.202 716.688 413.33 717.432 411.938 718.92C410.546 720.408 409.85 722.496 409.85 725.184V747H397.538V693.72H409.85V712.224C411.098 710.448 412.802 709.032 414.962 707.976C417.122 706.92 419.546 706.392 422.234 706.392ZM483.926 726.264C483.926 727.416 483.854 728.616 483.71 729.864H455.846C456.038 732.36 456.83 734.28 458.222 735.624C459.662 736.92 461.414 737.568 463.478 737.568C466.55 737.568 468.686 736.272 469.886 733.68H482.99C482.318 736.32 481.094 738.696 479.318 740.808C477.59 742.92 475.406 744.576 472.766 745.776C470.126 746.976 467.174 747.576 463.91 747.576C459.974 747.576 456.47 746.736 453.398 745.056C450.326 743.376 447.926 740.976 446.198 737.856C444.47 734.736 443.606 731.088 443.606 726.912C443.606 722.736 444.446 719.088 446.126 715.968C447.854 712.848 450.254 710.448 453.326 708.768C456.398 707.088 459.926 706.248 463.91 706.248C467.798 706.248 471.254 707.064 474.278 708.696C477.302 710.328 479.654 712.656 481.334 715.68C483.062 718.704 483.926 722.232 483.926 726.264ZM471.326 723.024C471.326 720.912 470.606 719.232 469.166 717.984C467.726 716.736 465.926 716.112 463.766 716.112C461.702 716.112 459.95 716.712 458.51 717.912C457.118 719.112 456.254 720.816 455.918 723.024H471.326ZM541.685 706.392C546.677 706.392 550.637 707.904 553.565 710.928C556.541 713.952 558.029 718.152 558.029 723.528V747H545.789V725.184C545.789 722.592 545.093 720.6 543.701 719.208C542.357 717.768 540.485 717.048 538.085 717.048C535.685 717.048 533.789 717.768 532.397 719.208C531.053 720.6 530.381 722.592 530.381 725.184V747H518.141V725.184C518.141 722.592 517.445 720.6 516.053 719.208C514.709 717.768 512.837 717.048 510.437 717.048C508.037 717.048 506.141 717.768 504.749 719.208C503.405 720.6 502.733 722.592 502.733 725.184V747H490.421V706.824H502.733V711.864C503.981 710.184 505.613 708.864 507.629 707.904C509.645 706.896 511.925 706.392 514.469 706.392C517.493 706.392 520.181 707.04 522.533 708.336C524.933 709.632 526.805 711.48 528.149 713.88C529.541 711.672 531.437 709.872 533.837 708.48C536.237 707.088 538.853 706.392 541.685 706.392Z" fill="black"></path>
<path d="M444.915 434.328H466.419V447H428.499V379.608H444.915V434.328ZM498.633 447.768C493.385 447.768 488.649 446.648 484.425 444.408C480.265 442.168 476.969 438.968 474.537 434.808C472.169 430.648 470.985 425.784 470.985 420.216C470.985 414.712 472.201 409.88 474.633 405.72C477.065 401.496 480.393 398.264 484.617 396.024C488.841 393.784 493.577 392.664 498.825 392.664C504.073 392.664 508.809 393.784 513.033 396.024C517.257 398.264 520.585 401.496 523.017 405.72C525.449 409.88 526.665 414.712 526.665 420.216C526.665 425.72 525.417 430.584 522.921 434.808C520.489 438.968 517.129 442.168 512.841 444.408C508.617 446.648 503.881 447.768 498.633 447.768ZM498.633 433.56C501.769 433.56 504.425 432.408 506.601 430.104C508.841 427.8 509.961 424.504 509.961 420.216C509.961 415.928 508.873 412.632 506.697 410.328C504.585 408.024 501.961 406.872 498.825 406.872C495.625 406.872 492.969 408.024 490.857 410.328C488.745 412.568 487.689 415.864 487.689 420.216C487.689 424.504 488.713 427.8 490.761 430.104C492.873 432.408 495.497 433.56 498.633 433.56ZM532.11 420.216C532.11 414.648 533.23 409.784 535.47 405.624C537.774 401.464 540.942 398.264 544.974 396.024C549.07 393.784 553.742 392.664 558.99 392.664C565.71 392.664 571.31 394.424 575.79 397.944C580.334 401.464 583.31 406.424 584.718 412.824H567.246C565.774 408.728 562.926 406.68 558.702 406.68C555.694 406.68 553.294 407.864 551.502 410.232C549.71 412.536 548.814 415.864 548.814 420.216C548.814 424.568 549.71 427.928 551.502 430.296C553.294 432.6 555.694 433.752 558.702 433.752C562.926 433.752 565.774 431.704 567.246 427.608H584.718C583.31 433.88 580.334 438.808 575.79 442.392C571.246 445.976 565.646 447.768 558.99 447.768C553.742 447.768 549.07 446.648 544.974 444.408C540.942 442.168 537.774 438.968 535.47 434.808C533.23 430.648 532.11 425.784 532.11 420.216ZM590.235 420.12C590.235 414.616 591.259 409.784 593.307 405.624C595.419 401.464 598.267 398.264 601.851 396.024C605.435 393.784 609.435 392.664 613.851 392.664C617.627 392.664 620.923 393.432 623.739 394.968C626.619 396.504 628.827 398.52 630.363 401.016V393.432H646.779V447H630.363V439.416C628.763 441.912 626.523 443.928 623.643 445.464C620.827 447 617.531 447.768 613.755 447.768C609.403 447.768 605.435 446.648 601.851 444.408C598.267 442.104 595.419 438.872 593.307 434.712C591.259 430.488 590.235 425.624 590.235 420.12ZM630.363 420.216C630.363 416.12 629.211 412.888 626.907 410.52C624.667 408.152 621.915 406.968 618.651 406.968C615.387 406.968 612.603 408.152 610.299 410.52C608.059 412.824 606.939 416.024 606.939 420.12C606.939 424.216 608.059 427.48 610.299 429.912C612.603 432.28 615.387 433.464 618.651 433.464C621.915 433.464 624.667 432.28 626.907 429.912C629.211 427.544 630.363 424.312 630.363 420.216ZM675.071 375.96V447H658.655V375.96H675.071ZM281.133 547.672C276.205 547.672 271.789 546.872 267.885 545.272C263.981 543.672 260.845 541.304 258.477 538.168C256.173 535.032 254.957 531.256 254.829 526.84H272.301C272.557 529.336 273.421 531.256 274.893 532.6C276.365 533.88 278.285 534.52 280.653 534.52C283.085 534.52 285.005 533.976 286.413 532.888C287.821 531.736 288.525 530.168 288.525 528.184C288.525 526.52 287.949 525.144 286.797 524.056C285.709 522.968 284.333 522.072 282.669 521.368C281.069 520.664 278.765 519.864 275.757 518.968C271.405 517.624 267.853 516.28 265.101 514.936C262.349 513.592 259.981 511.608 257.997 508.984C256.013 506.36 255.021 502.936 255.021 498.712C255.021 492.44 257.293 487.544 261.837 484.024C266.381 480.44 272.301 478.648 279.597 478.648C287.021 478.648 293.005 480.44 297.549 484.024C302.093 487.544 304.525 492.472 304.845 498.808H287.085C286.957 496.632 286.157 494.936 284.685 493.72C283.213 492.44 281.325 491.8 279.021 491.8C277.037 491.8 275.437 492.344 274.221 493.432C273.005 494.456 272.397 495.96 272.397 497.944C272.397 500.12 273.421 501.816 275.469 503.032C277.517 504.248 280.717 505.56 285.069 506.968C289.421 508.44 292.941 509.848 295.629 511.192C298.381 512.536 300.749 514.488 302.733 517.048C304.717 519.608 305.709 522.904 305.709 526.936C305.709 530.776 304.717 534.264 302.733 537.4C300.813 540.536 297.997 543.032 294.285 544.888C290.573 546.744 286.189 547.672 281.133 547.672ZM345.667 533.08V547H337.315C331.363 547 326.723 545.56 323.395 542.68C320.067 539.736 318.403 534.968 318.403 528.376V507.064H311.875V493.432H318.403V480.376H334.819V493.432H345.571V507.064H334.819V528.568C334.819 530.168 335.203 531.32 335.971 532.024C336.739 532.728 338.019 533.08 339.811 533.08H345.667ZM351.547 520.12C351.547 514.616 352.571 509.784 354.619 505.624C356.731 501.464 359.579 498.264 363.163 496.024C366.747 493.784 370.747 492.664 375.163 492.664C378.939 492.664 382.235 493.432 385.051 494.968C387.931 496.504 390.139 498.52 391.675 501.016V493.432H408.091V547H391.675V539.416C390.075 541.912 387.835 543.928 384.955 545.464C382.139 547 378.843 547.768 375.067 547.768C370.715 547.768 366.747 546.648 363.163 544.408C359.579 542.104 356.731 538.872 354.619 534.712C352.571 530.488 351.547 525.624 351.547 520.12ZM391.675 520.216C391.675 516.12 390.523 512.888 388.219 510.52C385.979 508.152 383.227 506.968 379.963 506.968C376.699 506.968 373.915 508.152 371.611 510.52C369.371 512.824 368.251 516.024 368.251 520.12C368.251 524.216 369.371 527.48 371.611 529.912C373.915 532.28 376.699 533.464 379.963 533.464C383.227 533.464 385.979 532.28 388.219 529.912C390.523 527.544 391.675 524.312 391.675 520.216ZM436.384 502.36C438.304 499.416 440.704 497.112 443.584 495.448C446.464 493.72 449.664 492.856 453.184 492.856V510.232H448.672C444.576 510.232 441.504 511.128 439.456 512.92C437.408 514.648 436.384 517.72 436.384 522.136V547H419.968V493.432H436.384V502.36ZM482.822 547.768C478.15 547.768 473.99 546.968 470.342 545.368C466.694 543.768 463.814 541.592 461.702 538.84C459.59 536.024 458.406 532.888 458.15 529.432H474.374C474.566 531.288 475.43 532.792 476.966 533.944C478.502 535.096 480.39 535.672 482.63 535.672C484.678 535.672 486.246 535.288 487.334 534.52C488.486 533.688 489.062 532.632 489.062 531.352C489.062 529.816 488.262 528.696 486.662 527.992C485.062 527.224 482.47 526.392 478.886 525.496C475.046 524.6 471.846 523.672 469.286 522.712C466.726 521.688 464.518 520.12 462.662 518.008C460.806 515.832 459.878 512.92 459.878 509.272C459.878 506.2 460.71 503.416 462.374 500.92C464.102 498.36 466.598 496.344 469.862 494.872C473.19 493.4 477.126 492.664 481.67 492.664C488.39 492.664 493.67 494.328 497.51 497.656C501.414 500.984 503.654 505.4 504.23 510.904H489.062C488.806 509.048 487.974 507.576 486.566 506.488C485.222 505.4 483.43 504.856 481.19 504.856C479.27 504.856 477.798 505.24 476.774 506.008C475.75 506.712 475.238 507.704 475.238 508.984C475.238 510.52 476.038 511.672 477.638 512.44C479.302 513.208 481.862 513.976 485.318 514.744C489.286 515.768 492.518 516.792 495.014 517.816C497.51 518.776 499.686 520.376 501.542 522.616C503.462 524.792 504.454 527.736 504.518 531.448C504.518 534.584 503.622 537.4 501.83 539.896C500.102 542.328 497.574 544.248 494.246 545.656C490.982 547.064 487.174 547.768 482.822 547.768Z" fill="#3080EB"></path>
</g>
<defs>
<clipPath id="clip0">
<rect width="1920" height="1080" fill="white"></rect>
</clipPath>
</defs>
</svg>